<svg fill="#4586f7" xmlns="http://www.w3.org/2000/svg"  viewBox="0 0 50 50" width="32px" height="32px"><path d="M25 15A10 10 0 1 0 25 35A10 10 0 1 0 25 15Z"/><path d="M45.893,15.401c-0.925,1.511-2.365,2.672-4.079,3.229C42.568,20.614,43,22.755,43,25c0,9.925-8.075,18-18,18S7,34.925,7,25S15.075,7,25,7c2.7,0,5.253,0.614,7.553,1.684c0.675-1.66,1.928-3.022,3.508-3.842C32.777,3.032,29.007,2,25,2C12.318,2,2,12.317,2,25s10.318,23,23,23s23-10.317,23-23C48,21.575,47.242,18.325,45.893,15.401z"/><path d="M39.5 6A5.5 5.5 0 1 0 39.5 17A5.5 5.5 0 1 0 39.5 6Z"/></svg>
